# xmcd CD database file
#
# Track frame offsets:
#	150
#	14037
#	28589
#	42941
#	58218
#	73370
#	87122
#	101011
#	114440
#	127512
#	141586
#	155190
#
# Disc length: 2259 seconds
#
# Revision: 1
# Processed by: cddbd v1.5.2PL0 Copyright (c) Steve Scherf et al.
# Submitted via: jetAudio 7
#
DISCID=ad08d10c
DTITLE=Blind Willie Johnson - Blind Willie Johnson Mix
DYEAR=1900
DGENRE=Blues
TTITLE0=I Know His Blood Can Make Me Whole
TTITLE1=Jesus Make Up My Dying Bed
TTITLE2=It's Nobody's Fault But Mine
TTITLE3=Mother's Children Have A Hard Time
TTITLE4=Dark Was The Night Cold Was The Ground
TTITLE5=Lord I Can't Just Keep From Crying
TTITLE6=Keep Your Lamp Trimmed And Burning
TTITLE7=God Don't Never Change
TTITLE8=Bye And Bye I'm Goin' To See The King
TTITLE9=You'll Need Somebody On Your Bond
TTITLE10=God Moves On The Water
TTITLE11=You're Gonne Need Somebody On Your Bond
EXTD=
EXTT0=
EXTT1=
EXTT2=
EXTT3=
EXTT4=
EXTT5=
EXTT6=
EXTT7=
EXTT8=
EXTT9=
EXTT10=
EXTT11=
PLAYORDER=
